<?xml version="1.0" encoding="utf-8"?>
<!-- Generator: Adobe Illustrator 16.0.0, SVG Export Plug-In . SVG Version: 6.00 Build 0)  -->
<!DOCTYPE svg PUBLIC "-//W3C//DTD SVG 1.1//EN" "http://www.w3.org/Graphics/SVG/1.1/DTD/svg11.dtd">
<svg version="1.1" id="Capa_1" xmlns="http://www.w3.org/2000/svg" xmlns:xlink="http://www.w3.org/1999/xlink" x="0px" y="0px"
	 width="164.571px" height="107.596px" viewBox="0 0 164.571 107.596" enable-background="new 0 0 164.571 107.596"
	 xml:space="preserve">
<rect fill="#2A4D9D" stroke="#000000" stroke-miterlimit="10" width="164.571" height="107.596"/>
<path fill="#5CB130" d="M123.803,77.135c-0.435-0.263-0.936-0.477-1.511-0.624c-6.458-1.654-13.344-2.23-19.345-5.273
	c-6.785-3.44-6.47-11.108-5.138-17.272c1.221-5.651,4.533-8.358,8.735-9.404c2.867-0.098,5.963,0.385,8.531,0.706
	c4.603,0.573,9.165,1.311,13.788,1.705c5.773,0.494,6.058-8.026,0.839-9.388c-7.717-2.014-15.835-4.19-23.811-2.862
	c-0.54,0.09-1.069,0.199-1.587,0.324c-2.673,0.257-5.222,0.893-7.534,2.119c-7.289,3.865-9.194,12.659-10.314,20.019
	c-1.404,9.228,2.173,16.232,9.957,21.704c7.196,5.059,17.462,8.057,26.261,7.622C128.455,86.224,128.613,78.349,123.803,77.135z"/>
<g>
	<g>
		<path fill="#5CB130" d="M30.047,67.381c3.63-8,6.422-16.356,10.227-24.276c1.684-3.505,3.59-6.839,5.126-10.421
			c1.331-3.104,2.595-6.516,4.808-9.117c-3.926-0.506-7.853-1.012-11.779-1.518c3.723,6.482,3.748,14.535,7,21.333
			c2.032,4.249,8.721,4.938,11.779,1.518c3.106-3.473,6.723-4.527,10.815-6.494c3.605-1.732,6.749-5.526,10.542-6.578
			c-3.075-3.075-6.15-6.15-9.226-9.226c-2.911,7.924-6.354,15.633-8.303,23.875c-1.985,8.395-1.931,16.958-5.03,25.125
			c-3.439,9.06,11.066,12.939,14.464,3.987c3.081-8.118,3.321-16.698,5.03-25.124c1.674-8.254,5.414-16.011,8.303-23.876
			c2.021-5.5-4.065-10.656-9.226-9.226c-5.383,1.491-8.804,5.888-13.815,7.94c-5.435,2.225-10.18,4.536-14.161,8.988
			c3.926,0.506,7.853,1.012,11.779,1.518c-3.267-6.828-3.135-14.604-7-21.333c-2.267-3.947-8.622-5.23-11.779-1.518
			c-5.242,6.162-7.625,13.837-11.417,20.875c-4.469,8.296-7.204,17.414-11.089,25.976c-1.689,3.723-1.103,8.039,2.691,10.261
			C23.036,71.976,28.357,71.105,30.047,67.381L30.047,67.381z"/>
	</g>
</g>
</svg>
