<?xml version="1.0" encoding="utf-8"?>
<!DOCTYPE svg PUBLIC "-//W3C//DTD SVG 1.1//EN" "http://www.w3.org/Graphics/SVG/1.1/DTD/svg11.dtd">
<svg version="1.1" id="Capa_1" xmlns="http://www.w3.org/2000/svg" xmlns:xlink="http://www.w3.org/1999/xlink" x="0px" y="0px"
	 width="2834.65px" height="2834.65px" viewBox="0 0 2834.65 2834.65" enable-background="new 0 0 2834.65 2834.65"
	 xml:space="preserve">
<rect fill="#FFFFFF" width="2834.65" height="2834.65"/>
<g>
	<defs>
		<path id="SVGID_1_" d="M1282.251,748.65c-5.81,7.224-6.368,12.522-7.212,20.542c12.085-42.89,82.988-56.793,143.75-51.562
			c-11.271-1.342-21.952-1.945-32.021-1.945C1330.558,715.687,1293.628,734.503,1282.251,748.65"/>
	</defs>
	<clipPath id="SVGID_2_">
		<use xlink:href="#SVGID_1_"  overflow="visible"/>
	</clipPath>
	
		<linearGradient id="SVGID_3_" gradientUnits="userSpaceOnUse" x1="4.882813e-004" y1="2834.6616" x2="1.0005" y2="2834.6616" gradientTransform="matrix(143.7505 0 0 -143.7505 1275.0388 408224.5938)">
		<stop  offset="0" style="stop-color:#E72C6F"/>
		<stop  offset="1" style="stop-color:#F28F5D"/>
	</linearGradient>
	<rect x="1275.039" y="712.399" clip-path="url(#SVGID_2_)" fill="url(#SVGID_3_)" width="143.75" height="56.793"/>
</g>
<g>
	<defs>
		<path id="SVGID_4_" d="M1776.811,783.682L1776.811,783.682 M1774.271,782.248c-0.009-0.004-0.016-0.008-0.022-0.012
			c-0.026-0.014-0.052-0.029-0.078-0.044c-0.006-0.003-0.011-0.006-0.017-0.009C1774.193,782.205,1774.232,782.227,1774.271,782.248
			 M1773.828,782c-0.007-0.004-0.016-0.009-0.024-0.013c-0.047-0.026-0.095-0.053-0.143-0.08c-0.028-0.016-0.058-0.032-0.085-0.048
			C1773.66,781.907,1773.744,781.953,1773.828,782 M1773.344,781.73c-0.165-0.092-0.329-0.184-0.494-0.276
			C1773.015,781.546,1773.179,781.638,1773.344,781.73 M1772.688,781.364c-0.043-0.024-0.084-0.047-0.127-0.071
			c-0.057-0.032-0.113-0.063-0.171-0.095c-0.031-0.017-0.063-0.036-0.097-0.054C1772.425,781.218,1772.556,781.291,1772.688,781.364
			 M1772.15,781.065c-0.03-0.017-0.062-0.034-0.093-0.051c-0.044-0.025-0.089-0.05-0.133-0.074
			c-0.099-0.055-0.196-0.109-0.296-0.164C1771.803,780.872,1771.976,780.969,1772.15,781.065 M1771.625,780.774
			c-0.189-0.105-0.379-0.21-0.568-0.314C1771.246,780.564,1771.436,780.669,1771.625,780.774 M1770.999,780.428
			c-0.094-0.052-0.188-0.104-0.282-0.156c-0.004-0.002-0.008-0.004-0.012-0.006c-0.07-0.039-0.139-0.077-0.209-0.115
			C1770.664,780.243,1770.831,780.335,1770.999,780.428 M1770.416,780.106c-0.375-0.206-0.749-0.411-1.124-0.616
			C1769.667,779.695,1770.042,779.9,1770.416,780.106 M1769.233,779.458c-0.167-0.092-0.334-0.183-0.503-0.275
			C1768.899,779.275,1769.066,779.366,1769.233,779.458 M1768.649,779.138c-0.367-0.2-0.733-0.399-1.102-0.6
			C1767.915,778.738,1768.282,778.938,1768.649,779.138 M1767.42,778.47c-0.136-0.074-0.27-0.147-0.406-0.22
			C1767.15,778.323,1767.285,778.396,1767.42,778.47 M1766.845,778.159c-0.147-0.081-0.295-0.16-0.443-0.24
			C1766.549,777.999,1766.697,778.079,1766.845,778.159 M1766.2,777.81c-0.123-0.066-0.245-0.131-0.367-0.197
			C1765.955,777.678,1766.078,777.744,1766.2,777.81 M1765.558,777.465c-0.077-0.041-0.152-0.082-0.229-0.123
			C1765.405,777.383,1765.48,777.424,1765.558,777.465 M1765.023,777.178c-0.045-0.024-0.088-0.047-0.133-0.071
			C1764.936,777.131,1764.979,777.155,1765.023,777.178 M1764.151,776.712c-0.013-0.007-0.024-0.013-0.036-0.02
			C1764.127,776.699,1764.139,776.705,1764.151,776.712 M1763.708,776.476c-0.021-0.011-0.039-0.021-0.058-0.031
			C1763.669,776.455,1763.688,776.465,1763.708,776.476 M1329.891,740.681c-48.793,56.396,206.929,163.144,418.827,124.37
			c34.122-6.244,106.425-24.566,59.327-62.02c-10.95-6.916-21.702-13.498-31.234-19.349c-6.248-3.427-13.299-7.257-20.585-11.114
			c-2.55-1.306-5.109-2.592-7.682-3.859c2.664,2.05,6.82,4.776,7.878,7.967c11.492,34.641-224.061,32.886-320.622-13.093
			c-10.099-4.809-58.378-29.623-17.011-45.953c-3.398-0.143-6.686-0.211-9.881-0.211
			C1362.727,717.421,1337.66,731.7,1329.891,740.681"/>
	</defs>
	<clipPath id="SVGID_5_">
		<use xlink:href="#SVGID_4_"  overflow="visible"/>
	</clipPath>
	
		<linearGradient id="SVGID_6_" gradientUnits="userSpaceOnUse" x1="0" y1="2834.6187" x2="1" y2="2834.6187" gradientTransform="matrix(499.6776 0 0 -499.6776 1323.7802 1417206.5)">
		<stop  offset="0" style="stop-color:#E72C6F"/>
		<stop  offset="1" style="stop-color:#F28F5D"/>
	</linearGradient>
	<rect x="1281.098" y="717.419" clip-path="url(#SVGID_5_)" fill="url(#SVGID_6_)" width="574.044" height="186.405"/>
</g>
<g>
	<defs>
		<path id="SVGID_7_" d="M1247.991,708.907c-1.243,0.277-2.548,0.581-3.894,0.904c-205.798,53.393-235.438,152.652-72.931,248.214
			c308.095,181.174,920.863,200.419,880.15,100.08c-0.021-0.052-0.043-0.102-0.063-0.154c-8.238-14.347-17.916-30.274-26.113-42.603
			c-8.148-12.258-19.166-27.879-28.718-40.3c-1.159-1.485-2.298-2.946-3.411-4.377l-22.966-27.679
			c-2.153-2.502-4.309-4.987-6.443-7.428c-0.638,1.618-1.457,3.69-2.076,5.264c-8.083,3.092-32.677,12.503-146.811,8.813
			c-152.854,6.464-310.468-5.767-432.427-33.557c-207.434-47.199-292.421-119.763-206.672-176.465
			c28.09-18.574,67.212-29.623,97.876-36.161C1264.553,705.29,1255.624,707.204,1247.991,708.907 M1290.988,699.987
			c-0.67,0.128-1.346,0.257-2.026,0.388c1.304-0.243,2.578-0.475,3.824-0.7C1292.185,699.779,1291.585,699.883,1290.988,699.987
			 M1292.786,699.675c6.455-1.116,13.041-2.213,18.592-3.129C1306.545,697.322,1300.195,698.341,1292.786,699.675"/>
	</defs>
	<clipPath id="SVGID_8_">
		<use xlink:href="#SVGID_7_"  overflow="visible"/>
	</clipPath>
	
		<linearGradient id="SVGID_9_" gradientUnits="userSpaceOnUse" x1="0" y1="2834.6304" x2="1" y2="2834.6304" gradientTransform="matrix(986.4042 0 0 -986.4042 1066.6978 2797018.5)">
		<stop  offset="0" style="stop-color:#E72C6F"/>
		<stop  offset="1" style="stop-color:#F28F5D"/>
	</linearGradient>
	<rect x="1008.659" y="696.546" clip-path="url(#SVGID_8_)" fill="url(#SVGID_9_)" width="1083.37" height="461.897"/>
</g>
<g>
	<defs>
		<path id="SVGID_10_" d="M1275.039,769.192c-10.208,64.424,171.658,162.976,539.676,180.448
			c114.134,3.691,138.728-5.72,146.811-8.813c0.619-1.573,1.438-3.646,2.076-5.265c-2.029-2.322-4.041-4.605-6.011-6.822
			c-14.267-15.197-32.073-32.796-45.833-46.46c-2.345-2.121-4.828-4.33-7.41-6.597c0.122,0.267,0.258,0.565,0.367,0.803
			c-41.277,24.917-486.468,0.663-571.456-95.871c-31.136-35.368,8.831-64.8,85.53-62.986c-5.835-0.57-13.362-0.963-21.928-0.962
			C1355.247,716.669,1289.237,725.943,1275.039,769.192"/>
	</defs>
	<clipPath id="SVGID_11_">
		<use xlink:href="#SVGID_10_"  overflow="visible"/>
	</clipPath>
	
		<linearGradient id="SVGID_12_" gradientUnits="userSpaceOnUse" x1="0" y1="2834.6479" x2="1" y2="2834.6479" gradientTransform="matrix(689.0608 0 0 -689.0608 1274.8591 1954079.625)">
		<stop  offset="0" style="stop-color:#E72C6F"/>
		<stop  offset="1" style="stop-color:#F28F5D"/>
	</linearGradient>
	<rect x="1264.831" y="715.816" clip-path="url(#SVGID_11_)" fill="url(#SVGID_12_)" width="698.771" height="237.515"/>
</g>
<g>
	<defs>
		<path id="SVGID_13_" d="M862.6,946.191c-34.926,45.402-44.167,91.007-27.454,135.78c9.244,24.765,22.092,39.62,43.378,64.229
			c-77.155-95.058-43.499-165.227,2.98-221.45C875.069,931.863,868.697,939.112,862.6,946.191"/>
	</defs>
	<clipPath id="SVGID_14_">
		<use xlink:href="#SVGID_13_"  overflow="visible"/>
	</clipPath>
	
		<linearGradient id="SVGID_15_" gradientUnits="userSpaceOnUse" x1="0" y1="2834.5952" x2="1" y2="2834.5952" gradientTransform="matrix(59.9374 0 0 -59.9374 827.0792 170933.6875)">
		<stop  offset="0" style="stop-color:#E72C6F"/>
		<stop  offset="1" style="stop-color:#F28F5D"/>
	</linearGradient>
	<rect x="801.369" y="924.751" clip-path="url(#SVGID_14_)" fill="url(#SVGID_15_)" width="80.135" height="221.45"/>
</g>
<g>
	<defs>
		<path id="SVGID_16_" d="M1003.71,817.885c-4.114,2.835-7.654,5.284-10.867,7.542c-6.62,4.735-13.557,9.923-19.933,14.875
			c-9.68,7.733-21.907,18.163-44.739,37.677c-3.445,3.086-6.77,6.113-9.879,9.001c-101.621,98.835-32.012,178.244-9.089,204.398
			c240.497,274.398,1215.229,354.749,1223.648,187.368c-4.084-22.04-11.977-50.048-18.356-73.095
			c-0.698-2.386-1.402-4.769-2.109-7.125c0.201,1.053,0.425,2.187,0.282,3.102c-15.627,100.932-906.854,30.735-1140.305-235.166
			c-61.045-78.532,6.475-129.875,32.875-149.597C1004.724,817.207,1004.214,817.548,1003.71,817.885"/>
	</defs>
	<clipPath id="SVGID_17_">
		<use xlink:href="#SVGID_16_"  overflow="visible"/>
	</clipPath>
	
		<linearGradient id="SVGID_18_" gradientUnits="userSpaceOnUse" x1="0" y1="2834.6177" x2="1" y2="2834.6177" gradientTransform="matrix(1268.2577 0 0 -1268.2577 864.8527 3596157.5)">
		<stop  offset="0" style="stop-color:#E72C6F"/>
		<stop  offset="1" style="stop-color:#F28F5D"/>
	</linearGradient>
	<rect x="816.671" y="816.865" clip-path="url(#SVGID_17_)" fill="url(#SVGID_18_)" width="1316.18" height="629.262"/>
</g>
<g>
	<defs>
		<path id="SVGID_19_" d="M754.403,1115.483c-5.032,12.188-11.246,26.804-16.804,40.673c-2.746,7.204-5.399,14.241-7.828,20.432
			l-5.046,14.924c-6.386,27.267-7.903,33.745-4.422,63.924c104.106,383.688,1329.701,495.471,1389.205,387.981
			c0.421-0.76,0.833-1.531,1.239-2.315c3.798-12.265,7.526-25.321,10.759-35.992c3.86-12.751,7.52-28.485,10.462-43.613
			c0.742-4.411,1.455-8.679,2.16-12.724c1.909-13.509,4.351-29.8,6.403-45.453c0.99-8.842,1.895-17.932,2.673-27.025
			c-8.854,4.175-26.724,11.548-156.576,7.907c-306.899,15.554-558.678-20.151-715.85-52.845
			c-369.69-77.817-562.522-195.98-516.208-316.236C754.514,1115.242,754.458,1115.362,754.403,1115.483"/>
	</defs>
	<clipPath id="SVGID_20_">
		<use xlink:href="#SVGID_19_"  overflow="visible"/>
	</clipPath>
	
		<linearGradient id="SVGID_21_" gradientUnits="userSpaceOnUse" x1="0" y1="2834.6245" x2="1" y2="2834.6245" gradientTransform="matrix(1425.1678 0 0 -1425.1678 718.1613 4041250)">
		<stop  offset="0" style="stop-color:#E72C6F"/>
		<stop  offset="1" style="stop-color:#F28F5D"/>
	</linearGradient>
	<rect x="708.256" y="1115.121" clip-path="url(#SVGID_20_)" fill="url(#SVGID_21_)" width="1434.948" height="635.786"/>
</g>
<g>
	<defs>
		<path id="SVGID_22_" d="M918.729,886.575l-25.167,25.107c-6.141,6.515-12.344,13.328-18.426,20.173
			c-81.863,100.244-24.705,176.743,3.388,214.346c129.84,150.929,522.828,313.977,1108.104,338.001
			c129.853,3.641,147.722-3.732,156.576-7.907c0.319-3.739,0.619-7.479,0.892-11.198l1.903-46.574l-0.743-31.6
			c-0.081-1.963-0.168-3.927-0.261-5.884c-15.556,5.139-64.974,6.276-85.538,6.526c-619.107,7.53-1400.581-232.363-1140.539-501.165
			C918.854,886.458,918.792,886.516,918.729,886.575"/>
	</defs>
	<clipPath id="SVGID_23_">
		<use xlink:href="#SVGID_22_"  overflow="visible"/>
	</clipPath>
	
		<linearGradient id="SVGID_24_" gradientUnits="userSpaceOnUse" x1="0" y1="2834.6479" x2="1" y2="2834.6479" gradientTransform="matrix(1313.186 0 0 -1313.186 832.3882 3723608)">
		<stop  offset="0" style="stop-color:#E72C6F"/>
		<stop  offset="1" style="stop-color:#F28F5D"/>
	</linearGradient>
	<rect x="658.876" y="886.399" clip-path="url(#SVGID_23_)" fill="url(#SVGID_24_)" width="1487.123" height="601.443"/>
</g>
<g>
	<defs>
		<path id="SVGID_25_" d="M705.883,1573.394l5.294,18.645c10.806,30.003,22.433,44.456,45.597,73.251
			c-35.429-45.652-40.993-59.505-52.267-99.174C704.965,1568.583,705.425,1571.014,705.883,1573.394"/>
	</defs>
	<clipPath id="SVGID_26_">
		<use xlink:href="#SVGID_25_"  overflow="visible"/>
	</clipPath>
	
		<linearGradient id="SVGID_27_" gradientUnits="userSpaceOnUse" x1="0" y1="2834.6108" x2="1" y2="2834.6108" gradientTransform="matrix(53.4654 0 0 -53.4654 703.3 153169.1875)">
		<stop  offset="0" style="stop-color:#E72C6F"/>
		<stop  offset="1" style="stop-color:#F28F5D"/>
	</linearGradient>
	<rect x="704.507" y="1566.116" clip-path="url(#SVGID_26_)" fill="url(#SVGID_27_)" width="52.267" height="99.175"/>
</g>
<g>
	<defs>
		<path id="SVGID_28_" d="M688.98,1416.118c0.323,21.85,2.202,49.992,3.87,73.441c0.615,5.408,1.3,10.932,2.041,16.505
			c39.04,173.865,307.435,280.031,527.187,338.672c607.863,162.204,779.525,7.006,781.843,4.69
			c7.214-9.809,14.574-20.312,20.418-29.102c1.776-2.671,3.626-5.513,5.521-8.473c7.146-11.542,13.989-23.181,20.185-33.219
			c0.24-0.415,0.481-0.832,0.718-1.243c-91.117,109.652-1090.143-10.899-1332.71-328.941c-23.922-39.834-26.134-50.803-26.785-89.07
			L688.98,1416.118z"/>
	</defs>
	<clipPath id="SVGID_29_">
		<use xlink:href="#SVGID_28_"  overflow="visible"/>
	</clipPath>
	
		<linearGradient id="SVGID_30_" gradientUnits="userSpaceOnUse" x1="-4.882813e-004" y1="2834.6177" x2="0.9995" y2="2834.6177" gradientTransform="matrix(1361.9907 0 0 -1361.9907 689.146 3862405.75)">
		<stop  offset="0" style="stop-color:#E72C6F"/>
		<stop  offset="1" style="stop-color:#F28F5D"/>
	</linearGradient>
	<rect x="688.98" y="1359.379" clip-path="url(#SVGID_29_)" fill="url(#SVGID_30_)" width="1361.782" height="647.561"/>
</g>
<g>
	<defs>
		<path id="SVGID_31_" d="M797.058,1799.329l8.148,12.569c4.902,7.357,10.239,15.092,15.426,22.542
			c153.636,195.521,767.759,296.074,918.543,236.469c16.146-8.421,36.313-19.69,53.729-29.754
			c8.357-5.054,16.805-10.276,24.493-15.192c21.326-14.447,45.267-32.721,64.305-47.508c0.645-0.538,1.29-1.079,1.937-1.623
			c-7.046,1.781-168.169,35.607-498.814-3.106c-121.865-15.176-527.069-77.479-624.695-241.983
			C770.42,1752.429,785.682,1779.218,797.058,1799.329"/>
	</defs>
	<clipPath id="SVGID_32_">
		<use xlink:href="#SVGID_31_"  overflow="visible"/>
	</clipPath>
	
		<linearGradient id="SVGID_33_" gradientUnits="userSpaceOnUse" x1="0" y1="2834.6294" x2="0.9995" y2="2834.6294" gradientTransform="matrix(1123.7488 0 0 -1123.7488 759.9797 3187343.75)">
		<stop  offset="0" style="stop-color:#E72C6F"/>
		<stop  offset="1" style="stop-color:#F28F5D"/>
	</linearGradient>
	<rect x="760.128" y="1731.742" clip-path="url(#SVGID_32_)" fill="url(#SVGID_33_)" width="1123.51" height="398.772"/>
</g>
<g>
	<defs>
		<path id="SVGID_34_" d="M704.609,1566.667c11.918,43.275,20.12,56.524,52.165,98.623
			c177.793,201.752,662.905,322.278,1029.188,322.245c71.61-1.497,82.764-5.344,97.64-10.673
			c9.596-8.063,19.432-16.678,27.793-24.277c11.993-11.275,25.326-25.031,36.14-35.75c0.224-0.235,0.446-0.47,0.669-0.703
			c-91.944,37.594-1169.257-32.009-1253.299-409.968C697.63,1526.662,701.107,1547.861,704.609,1566.667"/>
	</defs>
	<clipPath id="SVGID_35_">
		<use xlink:href="#SVGID_34_"  overflow="visible"/>
	</clipPath>
	
		<linearGradient id="SVGID_36_" gradientUnits="userSpaceOnUse" x1="4.882813e-004" y1="2834.6479" x2="0.9995" y2="2834.6479" gradientTransform="matrix(1254.6937 0 0 -1254.6937 693.9908 3558361)">
		<stop  offset="0" style="stop-color:#E72C6F"/>
		<stop  offset="1" style="stop-color:#F28F5D"/>
	</linearGradient>
	<rect x="694.904" y="1506.164" clip-path="url(#SVGID_35_)" fill="url(#SVGID_36_)" width="1253.299" height="481.404"/>
</g>
<g>
	<defs>
		<path id="SVGID_37_" d="M927.231,1955.793l27.116,23.712c2.7,2.137,5.27,4.164,7.732,6.099
			c14.169,11.024,30.985,23.368,45.751,33.757c13.188,8.823,27.674,17.704,50.335,31.597l9.236,5.158
			c135.292,71.809,312.797,92.028,399.133,88.102c0.048-0.003,0.097-0.008,0.145-0.011l10.519-0.789
			c1.179-0.098,2.246-0.186,3.232-0.268c4.123-0.36,8.426-0.773,12.947-1.252c4.477-0.505,10.6-1.248,21.279-2.544
			c0.645-0.085,1.283-0.171,1.923-0.258c7.681-1.045,19.524-2.827,34.085-5.567c17.865-3.425,33.723-7.256,50.02-11.229
			c0.522-0.137,1.047-0.273,1.57-0.411c-131.462,25.049-505.353-28.862-677.581-168.491
			C925.527,1954.2,926.379,1954.999,927.231,1955.793"/>
	</defs>
	<clipPath id="SVGID_38_">
		<use xlink:href="#SVGID_37_"  overflow="visible"/>
	</clipPath>
	
		<linearGradient id="SVGID_39_" gradientUnits="userSpaceOnUse" x1="0" y1="2834.646" x2="1" y2="2834.646" gradientTransform="matrix(681.0068 0 0 -681.0068 921.9 1932463.875)">
		<stop  offset="0" style="stop-color:#E72C6F"/>
		<stop  offset="1" style="stop-color:#F28F5D"/>
	</linearGradient>
	<rect x="924.673" y="1953.397" clip-path="url(#SVGID_38_)" fill="url(#SVGID_39_)" width="677.581" height="194.747"/>
</g>
<g>
	<defs>
		<path id="SVGID_40_" d="M1151.731,2095.647c12.505,4.788,29.384,10.627,42.031,15.028
			c59.549,18.385,100.898,25.617,148.032,31.228c1.418,0.152,2.8,0.296,4.136,0.432l1.362,0.137c1.017,0.098,1.943,0.187,2.805,0.27
			c3.921,0.368,7.695,0.683,11.209,0.95c4.013,0.284,9.404,0.621,18.967,1.219c1.741,0.089,3.195,0.164,4.503,0.229
			c2.366,0.109,4.789,0.207,7.252,0.292c3.917,0.116,9.102,0.215,19.478,0.409c4.424,0.036,8.832,0.036,13.135,0
			c3.881-0.063,9.155-0.192,18.999-0.438c0.024-0.001,0.05-0.002,0.074-0.002c2.469-0.099,4.959-0.205,7.484-0.323
			c5.211-0.264,10.746-0.602,15.293-0.856c0.013-0.001,0.025-0.002,0.039-0.003c-106.35,5.051-277.58-23.587-399.129-88.102
			C1099.57,2073.458,1104.507,2075.558,1151.731,2095.647"/>
	</defs>
	<clipPath id="SVGID_41_">
		<use xlink:href="#SVGID_40_"  overflow="visible"/>
	</clipPath>
	
		<linearGradient id="SVGID_42_" gradientUnits="userSpaceOnUse" x1="-4.882813e-004" y1="2834.646" x2="0.9995" y2="2834.646" gradientTransform="matrix(399.1736 0 0 -399.1736 1067.4883 1133618.5)">
		<stop  offset="0" style="stop-color:#E72C6F"/>
		<stop  offset="1" style="stop-color:#F28F5D"/>
	</linearGradient>
	<rect x="1067.401" y="2056.116" clip-path="url(#SVGID_41_)" fill="url(#SVGID_42_)" width="399.129" height="93.152"/>
</g>
</svg>
